<svg xmlns="http://www.w3.org/2000/svg"  viewBox="0 0 64 64" width="64px" height="64px"><linearGradient id="SVGID_1_" x1="39" x2="39" y1="-224.583" y2="-231.478" gradientTransform="matrix(1 0 0 -1 0 -187)" gradientUnits="userSpaceOnUse"><stop offset="0" stop-color="#6dc7ff"/><stop offset="1" stop-color="#e6abff"/></linearGradient><path fill="url(#SVGID_1_)" d="M39,38c-1.7,0-3,1.3-3,3s1.3,3,3,3s3-1.3,3-3S40.7,38,39,38z"/><linearGradient id="SVGID_2_" x1="25" x2="25" y1="-224.583" y2="-231.478" gradientTransform="matrix(1 0 0 -1 0 -187)" gradientUnits="userSpaceOnUse"><stop offset="0" stop-color="#6dc7ff"/><stop offset="1" stop-color="#e6abff"/></linearGradient><path fill="url(#SVGID_2_)" d="M25,38c-1.7,0-3,1.3-3,3s1.3,3,3,3s3-1.3,3-3S26.7,38,25,38z"/><linearGradient id="SVGID_3_" x1="32" x2="32" y1="-232.167" y2="-238.334" gradientTransform="matrix(1 0 0 -1 0 -187)" gradientUnits="userSpaceOnUse"><stop offset="0" stop-color="#6dc7ff"/><stop offset="1" stop-color="#e6abff"/></linearGradient><path fill="url(#SVGID_3_)" d="M28,47c0,2.2,1.8,4,4,4s4-1.8,4-4v-1h-8V47z"/><linearGradient id="SVGID_4_" x1="32" x2="32" y1="7.255" y2="58.006" gradientUnits="userSpaceOnUse"><stop offset="0" stop-color="#1a6dff"/><stop offset="1" stop-color="#c822ff"/></linearGradient><path fill="url(#SVGID_4_)" d="M50,32.1V30c0-4.2-1.4-8.2-4.1-11.4C45.2,11.5,39.3,6,32,6c-7.3,0-13.2,5.5-13.9,12.6C15.4,21.8,14,25.8,14,30 v2.1c-3.4,0.5-6,3.4-6,6.9c0,3.9,3.1,7,7,7v-0.1C17.4,52.9,24.1,58,32,58s14.6-5.1,17-12.1V46c3.9,0,7-3.1,7-7 C56,35.5,53.4,32.6,50,32.1z M10,39c0-2.4,1.7-4.4,4-4.9v2.1c-1.2,0.4-2,1.5-2,2.8c0,1.3,0.9,2.5,2.1,2.8c0.1,0.7,0.2,1.4,0.4,2.1 C12,43.7,10,41.6,10,39z M32,8c6.6,0,12,5.4,12,12s-5.4,12-12,12s-12-5.4-12-12S25.4,8,32,8z M48,40c0,8.8-7.2,16-16,16 s-16-7.2-16-16V30c0-2.8,0.8-5.6,2.2-8c1,6.8,6.8,12,13.8,12c7,0,12.9-5.2,13.8-12c1.4,2.4,2.2,5.2,2.2,8V40z M49.6,43.9 c0.2-0.7,0.3-1.4,0.4-2.1c1.2-0.4,2.1-1.5,2.1-2.8c0-1.3-0.8-2.4-2-2.8v-2.1c2.3,0.5,4,2.5,4,4.9C54,41.6,52,43.7,49.6,43.9z"/><linearGradient id="SVGID_5_" x1="26.343" x2="26.343" y1="7.255" y2="58.006" gradientUnits="userSpaceOnUse"><stop offset="0" stop-color="#1a6dff"/><stop offset="1" stop-color="#c822ff"/></linearGradient><path fill="url(#SVGID_5_)" d="M27.5,23.7l1.4-1.5l-2.9-2.8l2.9-2.8l-1.4-1.5l-3.1,2.9c-0.4,0.3-0.6,0.8-0.6,1.3s0.2,1,0.6,1.3L27.5,23.7z"/><linearGradient id="SVGID_6_" x1="31.863" x2="31.863" y1="7.255" y2="58.006" gradientUnits="userSpaceOnUse"><stop offset="0" stop-color="#1a6dff"/><stop offset="1" stop-color="#c822ff"/></linearGradient><polygon fill="url(#SVGID_6_)" points="34.6,13.9 32.7,13.3 29.1,25.6 31,26.2"/><linearGradient id="SVGID_7_" x1="37.657" x2="37.657" y1="7.255" y2="58.006" gradientUnits="userSpaceOnUse"><stop offset="0" stop-color="#1a6dff"/><stop offset="1" stop-color="#c822ff"/></linearGradient><path fill="url(#SVGID_7_)" d="M36.5,23.7l3.1-2.9c0.4-0.3,0.6-0.8,0.6-1.3s-0.2-1-0.6-1.3l-3.1-2.9l-1.4,1.5l2.9,2.8l-2.9,2.8L36.5,23.7z"/></svg>